# xmcd CD database file
#
# Track frame offsets:
#	150
#	17994
#	31298
#	60480
#
# Disc length: 1138 seconds
#
# Revision: 0
# Processed by: cddbd v1.5.1PL0 Copyright (c) Steve Scherf et al.
# Submitted via: CDex 1.51
#
DISCID=2a047004
DTITLE=Schwardix Mavally - 回顧録〜第三章〜
DYEAR=1900
DGENRE=Rock
TTITLE0=HUNTING DAYS
TTITLE1=Suspicious
TTITLE2=Lucifer
TTITLE3=鬼神風来
EXTD=
EXTT0=
EXTT1=
EXTT2=
EXTT3=
PLAYORDER=
